<svg width="32" height="32" viewBox="0 0 32 32" fill="none" xmlns="http://www.w3.org/2000/svg">
  <rect width="32" height="32" fill="#1a1a1a"/>
  <path d="M22 16C22 16.7956 21.8827 17.5587 21.6629 18.2671C20.9385 20.6187 18.7256 22.4 16 22.4C12.4654 22.4 9.6 19.5346 9.6 16C9.6 12.4654 12.4654 9.6 16 9.6C16.7956 9.6 17.5587 9.71734 18.2671 9.93706C17.0073 10.8951 16.1818 12.3604 16.1818 14C16.1818 16.7614 18.4204 19 21.1818 19C21.4814 19 21.7736 18.9709 22.0565 18.9155C22.0191 17.9498 22 16.9797 22 16Z" fill="#D4AF37"/>
</svg>
